# xmcd CD database file
#
# Track frame offsets:
#	150
#	17597
#	27352
#	43247
#	57080
#	78470
#	94420
#	109175
#	123770
#	134277
#	154597
#	171075
#	185630
#	199512
#
# Disc length: 2923 seconds
#
# Revision: 0
# Processed by: cddbd v1.5.2PL0 Copyright (c) Steve Scherf et al.
# Submitted via: CdAid (MTCDDB.DLL V2003.12.21)
#
DISCID=b50b690e
DTITLE=Various Artist - 40ª Festa do Peão de Boiadeiro de Barretos
DYEAR=1995
DGENRE=Country
TTITLE0=Segura peão - Sérgio Reis com participação de Asa Branca
TTITLE1=Estrada da Vida - Milionário e José Rico
TTITLE2=Oração de Rodeio - Jayne
TTITLE3=Não Aprendi Dizer Adeus - Leandro e Leonardo
TTITLE4=Berrante de Ouro - Duduca e Dalvan
TTITLE5=Rosto Molhado - João Paulo e Daniel
TTITLE6=A Viola e Saudade - Goiano e Paranaense
TTITLE7=Ginete (Peão de Rodeio) - Cézar e Paulinho
TTITLE8=Ladrão de Mulher - Chrystian e Ralf
TTITLE9=Cowboy de Rodeio - Nalva Aguiar
TTITLE10=Mágoa de Boiadeiro - Pedro Bento e Zé da Estrada
TTITLE11=Berrante de Madalena - Silveira e Silbeirinha
TTITLE12=Amargurado - Tião Carreiro e pardinho
TTITLE13=Geração de Boiadeiro - Matogrosso e Mathias
EXTD=ID3G:   2 YEAR: 1995
EXTT0=
EXTT1=
EXTT2=
EXTT3=
EXTT4=
EXTT5=
EXTT6=
EXTT7=
EXTT8=
EXTT9=
EXTT10=
EXTT11=
EXTT12=
EXTT13=
PLAYORDER=
